<svg xmlns="http://www.w3.org/2000/svg" width="85" height="100"><defs><linearGradient id="a" x1="50%" x2="50%" y1="0%" y2="100%"><stop offset="0%" stop-color="#1D70CA"/><stop offset="100%" stop-color="#41A5EE"/></linearGradient></defs><g fill="none" fill-rule="evenodd"><path fill="url(#a)" d="M6 0h56.333L85 22.857V94a6 6 0 0 1-6 6H6a6 6 0 0 1-6-6V6a6 6 0 0 1 6-6"/><path fill="#FFF" d="M62.333 0 85 22.535H68.333a6 6 0 0 1-6-6z" opacity=".5"/><rect width="42.5" height="42.254" y="30.986" fill="#1B61CA" rx="2"/><path fill="#FFF" d="M51 33.803h22.667v2.817H51zm0 11.267h22.667v2.817H51zm0 11.268h22.667v2.817H51zm0 11.268h22.667v2.817H51z" opacity=".5"/><path fill="#FFF" fill-rule="nonzero" d="M25.794 62.864c1.347 2.143 4.579 1.757 5.384-.643l5.666-16.901a3 3 0 1 0-5.688-1.907l-3.654 10.896-3.712-5.906c-1.176-1.87-3.904-1.87-5.08 0l-3.712 5.906-3.654-10.896a3 3 0 1 0-5.688 1.907l5.666 16.901c.805 2.4 4.037 2.786 5.384.643l4.544-7.227z"/></g></svg>