<svg xmlns="http://www.w3.org/2000/svg" width="84" height="100"><defs><linearGradient id="a" x1="50%" x2="50%" y1="100%" y2="0%"><stop offset="0%" stop-color="#98BCCD"/><stop offset="100%" stop-color="#76A1B7"/></linearGradient></defs><g fill="none" fill-rule="evenodd"><path fill="url(#a)" d="M83.333 20.833V93.75a6.25 6.25 0 0 1-6.25 6.25H6.25A6.25 6.25 0 0 1 0 93.75V6.25A6.25 6.25 0 0 1 6.25 0H62.5l20.833 20.833Z"/><path fill="#FFF" d="M50 45.833c1.15 0 2.083.933 2.083 2.084v18.75h2.084c1.15 0 2.083.932 2.083 2.083v2.083h4.167a2.083 2.083 0 0 1 0 4.167h-4.168l.001 2.083c0 1.15-.933 2.084-2.083 2.084h-2.084v6.25a2.083 2.083 0 0 1-4.166 0v-6.25h-2.084a2.083 2.083 0 0 1-2.083-2.084V75H22.916a2.083 2.083 0 1 1 0-4.167h20.832l.001-2.083c0-1.15.933-2.083 2.083-2.083h2.083v-18.75c0-1.15.933-2.084 2.084-2.084Z" opacity=".6"/><path fill="#BEEAFF" d="M83.333 20.833H66.667a4.167 4.167 0 0 1-4.167-4.166V0l20.833 20.833Z"/><text fill="#FFF" font-family="Helvetica" font-size="22.917">
      <tspan x="10.417" y="27.167">dwg</tspan>
    </text></g></svg>