<svg xmlns="http://www.w3.org/2000/svg" width="85" height="100"><defs><linearGradient id="a" x1="50%" x2="50%" y1="0%" y2="100%"><stop offset="0%" stop-color="#E86D36"/><stop offset="100%" stop-color="#FA9B70"/></linearGradient></defs><g fill="none" fill-rule="evenodd"><path fill="url(#a)" d="M6 0h56.333L85 22.857V94a6 6 0 0 1-6 6H6a6 6 0 0 1-6-6V6a6 6 0 0 1 6-6"/><path fill="#FFF" d="M51 33.803h22.667v2.817H51zm0 11.267h22.667v2.817H51zm0 11.268h22.667v2.817H51zm0 11.268h22.667v2.817H51zM62.333 0 85 22.535H68.333a6 6 0 0 1-6-6z" opacity=".5"/><rect width="42.5" height="42.254" y="30.986" fill="#E96123" rx="2"/><path fill="#FFF" fill-rule="nonzero" d="M11.167 40.845a3 3 0 0 1 3-3h11.366a8.634 8.634 0 1 1 0 17.268H14.167a3 3 0 0 1-3-3zm6 8.268h8.366a2.634 2.634 0 1 0 0-5.268h-8.366z"/><path stroke="#FFF" stroke-linecap="round" stroke-linejoin="round" stroke-width="6" d="M14.167 40.845V63.38"/></g></svg>