<svg xmlns="http://www.w3.org/2000/svg" width="85" height="100"><defs><linearGradient id="a" x1="50%" x2="50%" y1="0%" y2="100%"><stop offset="0%" stop-color="#3BA065"/><stop offset="100%" stop-color="#5AC486"/></linearGradient></defs><g fill="none" fill-rule="evenodd"><path fill="url(#a)" d="M6 0h56.333L85 22.857V94a6 6 0 0 1-6 6H6a6 6 0 0 1-6-6V6a6 6 0 0 1 6-6Z"/><path fill="#FFF" d="M51 33.803h22.667v2.817H51zm0 11.267h22.667v2.817H51zm0 11.268h22.667v2.817H51zm0 11.268h22.667v2.817H51zM62.333 0 85 22.535H68.333a6 6 0 0 1-6-6V0Z" opacity=".5"/><rect width="42.5" height="42.254" y="30.986" fill="#30955A" rx="2"/><path fill="#FFF" fill-rule="nonzero" d="m27.355 39.038-17 22.536a3 3 0 0 0 4.79 3.613l17-22.535a3 3 0 0 0-4.79-3.614Z"/><path fill="#FFF" fill-rule="nonzero" d="m15.145 39.038 17 22.536a3 3 0 0 1-4.79 3.613l-17-22.535a3 3 0 0 1 4.79-3.614Z"/></g></svg>