<svg xmlns="http://www.w3.org/2000/svg" width="99" height="100"><g fill="none" fill-rule="evenodd"><path fill="#43BA73" d="M4 69.014h91a4 4 0 0 1 4 4V88c0 6.627-5.373 12-12 12H12c-6.627 0-12-5.373-12-12V73.014a4 4 0 0 1 4-4"/><path fill="#4AB0F7" d="M12 0h75c6.627 0 12 5.373 12 12v14.986a4 4 0 0 1-4 4H4a4 4 0 0 1-4-4V12C0 5.373 5.373 0 12 0"/><rect width="99" height="30.986" y="35.211" fill="#F5582E" rx="4"/><path fill="#F9C93A" d="M38.186 0h22.629v100H38.186z"/><path fill="#FFF" fill-rule="nonzero" d="M33.7 34.507h31.6a4 4 0 0 1 4 4v22.986a4 4 0 0 1-4 4H33.7a4 4 0 0 1-4-4V38.507a4 4 0 0 1 4-4m8 18.986h15.6v-6.986H41.7z"/></g></svg>