<svg viewBox="0 0 1024 1024">
  <path d="M320 725.333h384L746.667 960H277.333z" fill="#333549" />
  <path d="m337.813 746.667-34.922 192h418.218l-34.922-192z" fill="#B9BECA" />
  <path
    d="M106.667 85.333h810.666a64 64 0 0 1 64 64V768a64 64 0 0 1-64 64H106.667a64 64 0 0 1-64-64V149.333a64 64 0 0 1 64-64z"
    fill="#333549" />
  <path
    d="M106.667 106.667A42.667 42.667 0 0 0 64 149.333V768a42.667 42.667 0 0 0 42.667 42.667h810.666A42.667 42.667 0 0 0 960 768V149.333a42.667 42.667 0 0 0-42.667-42.666H106.667z"
    fill="#B9BECA" />
  <path d="M480 725.333h64a32 32 0 0 1 0 64h-64a32 32 0 0 1 0-64z" fill="#333549" />
  <path d="M480 746.667A10.667 10.667 0 1 0 480 768h64a10.667 10.667 0 1 0 0-21.333h-64z" fill="#FFEEB4" />
  <path d="M213.333 896h597.334a42.667 42.667 0 1 1 0 85.333H213.333a42.667 42.667 0 1 1 0-85.333z" fill="#333549" />
  <path d="M213.333 917.333a21.333 21.333 0 0 0 0 42.667h597.334a21.333 21.333 0 0 0 0-42.667H213.333z"
    fill="#B9BECA" />
  <path
    d="M128 128h768a42.667 42.667 0 0 1 42.667 42.667v490.666A42.667 42.667 0 0 1 896 704H128a42.667 42.667 0 0 1-42.667-42.667V170.667A42.667 42.667 0 0 1 128 128z"
    fill="#333549" />
  <path
    d="M128 149.333a21.333 21.333 0 0 0-21.333 21.334v490.666A21.333 21.333 0 0 0 128 682.667h768a21.333 21.333 0 0 0 21.333-21.334V170.667A21.333 21.333 0 0 0 896 149.333H128z"
    fill="#FFF" />
  <path
    d="M213.333 213.333h597.334A42.667 42.667 0 0 1 853.333 256v320a42.667 42.667 0 0 1-42.666 42.667H213.333A42.667 42.667 0 0 1 170.667 576V256a42.667 42.667 0 0 1 42.666-42.667z"
    fill="#333549" />
  <path
    d="M213.333 234.667A21.333 21.333 0 0 0 192 256v320a21.333 21.333 0 0 0 21.333 21.333h597.334A21.333 21.333 0 0 0 832 576V256a21.333 21.333 0 0 0-21.333-21.333H213.333z"
    fill="#7DACFF" />
  <path d="M554.667 469.333h192a42.667 42.667 0 1 1 0 85.334h-192a42.667 42.667 0 1 1 0-85.334z" fill="#333549" />
  <path d="M554.667 490.667a21.333 21.333 0 0 0 0 42.666h192a21.333 21.333 0 0 0 0-42.666h-192z" fill="#FFF" />
  <path d="M213.333 213.333h256v405.334h-256A42.667 42.667 0 0 1 170.667 576V256a42.667 42.667 0 0 1 42.666-42.667z"
    fill="#333549" />
  <path d="M448 234.667H213.333A21.333 21.333 0 0 0 192 256v320a21.333 21.333 0 0 0 21.333 21.333H448V234.667z"
    fill="#FFEEB4" />
  <path
    d="m193.963 251.477 256 362.667a10.667 10.667 0 1 0 17.408-12.288l-256-362.667a10.667 10.667 0 0 0-17.408 12.288z"
    fill="#333549" />
  <path
    d="m211.37 592.81 256-362.666a10.667 10.667 0 1 0-17.407-12.288l-256 362.667a10.667 10.667 0 1 0 17.408 12.288zm321.963-198.143H768a10.667 10.667 0 1 0 0-21.334H533.333a10.667 10.667 0 1 0 0 21.334zm0-64H768a10.667 10.667 0 1 0 0-21.334H533.333a10.667 10.667 0 1 0 0 21.334z"
    fill="#333549" />
</svg>
