<svg t="1663585334305" class="icon" viewBox="0 0 1024 1024" version="1.1" xmlns="http://www.w3.org/2000/svg"
  p-id="10285" width="200" height="200">
  <path
    d="M483.934815 73.007407A74.145185 74.145185 0 0 1 512 131.034074L511.981037 132.740741h225.735111c42.856296 0 77.615407 34.417778 77.691259 76.93274v152.120889h-40.96v-152.120889a36.598519 36.598519 0 0 0-36.731259-36.295111H515.034074v677.24326h222.682074a36.712296 36.712296 0 0 0 36.731259-36.427852V663.703704H815.407407v150.490074a76.762074 76.762074 0 0 1-22.755555 54.499555A77.994667 77.994667 0 0 1 737.716148 891.259259H509.952a74.353778 74.353778 0 0 1-88.993185 54.954667L171.444148 888.661333A73.803852 73.803852 0 0 1 113.777778 816.241778V188.643556a73.803852 73.803852 0 0 1 57.66637-72.38163L420.977778 58.785185a74.372741 74.372741 0 0 1 62.976 14.203259zM369.777778 398.222222c-36.655407 0-66.37037 31.478519-66.370371 70.314667 0.151704 16.384 5.366519 32.104296 14.601482 44.86637l-13.463704 66.503111a36.54163 36.54163 0 0 0 6.712889 31.61126c7.035259 8.950519 17.863111 14.222222 29.335704 14.260148h58.368a37.660444 37.660444 0 0 0 29.165037-14.127408 36.693333 36.693333 0 0 0 7.035259-31.326814l-14.051555-65.592889A76.515556 76.515556 0 0 0 436.148148 468.536889C436.148148 429.700741 406.433185 398.222222 369.777778 398.222222z m0.398222 42.192593c14.65837 0 26.548148 12.591407 26.548148 28.122074 0.075852 9.291852-3.792593 18.166519-10.486518 24.177778a21.617778 21.617778 0 0 0-8.154074 19.133629 20.859259 20.859259 0 0 0 0.284444 6.902519l14.203259 64.948148h-45.435259l13.236148-64.70163c1.649778-3.527111 2.332444-7.509333 1.915259-11.491555-0.568889-5.556148-3.223704-10.619259-7.376592-14.089482a33.109333 33.109333 0 0 1-11.282963-24.879407c0-15.54963 11.889778-28.122074 26.548148-28.122074z"
    p-id="10286"></path>
  <path
    d="M801.355852 625.777778a18.962963 18.962963 0 0 1-8.457482-1.896297 22.85037 22.85037 0 0 1-13.842963-21.238518v-32.824889h-170.439111c-11.472593 0-20.764444-9.709037-20.764444-21.69363 0-11.96563 9.291852-21.69363 20.764444-21.693629h212.119704v27.041185L860.615111 512l-39.879111-41.642667v27.173926H608.616296c-11.472593 0-20.764444-9.709037-20.764444-21.674666 0-11.984593 9.291852-21.69363 20.764444-21.69363h170.590815V421.167407c0.056889-9.272889 5.44237-17.616593 13.653333-21.181629a21.466074 21.466074 0 0 1 24.007112 4.854518l86.945185 90.794667c8.533333 9.064296 8.533333 23.627852 0 32.692148l-86.945185 90.642963c-4.114963 4.323556-9.690074 6.750815-15.511704 6.807704z"
    p-id="10287"></path>
</svg>
