<svg t="1663585178573" class="icon" viewBox="0 0 1024 1024" version="1.1" xmlns="http://www.w3.org/2000/svg" p-id="4653"
  width="200" height="200">
  <path
    d="M432.54 234.708a45.613 45.613 0 0 1 4.283 14.143l11.972 178.061 5.942 89.498a92.053 92.053 0 0 0 4.284 27.138c7.177 17.055 24.443 27.894 43.228 27.139l286.24-18.73c12.394-0.204 24.364 4.433 33.274 12.892 7.426 7.05 12.22 16.27 13.73 26.189l0.507 6.022c-11.845 164.075-132.308 300.925-295.987 336.252-163.679 35.326-331.523-39.3-412.406-183.36-23.318-41.853-37.883-87.856-42.839-135.31a258.927 258.927 0 0 1-2.726-42.426c-0.256-175.907 124.969-327.984 300.26-364.646 21.096-3.286 41.779 7.886 50.237 27.138z"
    fill="#1C9DFF" p-id="4654"></path>
  <path
    d="M549.502 82.035C745.53 87.021 910.287 227.956 942 417.784l-0.303 1.4-0.865 2.038 0.12 5.591c-0.449 7.408-3.31 14.535-8.24 20.293-5.135 5.997-12.15 10.08-19.877 11.666l-4.711 0.646-330.197 21.39c-10.983 1.083-21.92-2.458-30.087-9.742-6.807-6.07-11.158-14.264-12.388-23.093L513.29 118.322a5.251 5.251 0 0 1 0-3.438c0.303-9.086 4.304-17.675 11.108-23.848 6.805-6.173 15.846-9.414 25.105-9z"
    fill="#333333" p-id="4655"></path>
</svg>
